# xmcd CD database file
#
# Track frame offsets:
#	150
#	21257
#	43295
#	64212
#	84937
#	117450
#	140325
#
# Disc length: 2356 seconds
#
# Revision: 0
# Processed by: cddbd v1.5.1PL0 Copyright (c) Steve Scherf et al.
# Submitted via: CDex 1.51
#
DISCID=5f093207
DTITLE=佐々木功 - Stars&Wave
DYEAR=1900
DGENRE=Jazz
TTITLE0=Star Dust/スターダスト
TTITLE1=Stairway To The Stars/ステアウェイ・トゥ・ザ・スターズ
TTITLE2=Stars Feel On Alabama/星降るアラバマ
TTITLE3=When You Wish Upon A Star/星に願いを
TTITLE4=Stella By Starlight/星影のステラ
TTITLE5=Evening Star/イヴニング・スター
TTITLE6=Star Valley/スター・ヴァレー
EXTD=
EXTT0=
EXTT1=
EXTT2=
EXTT3=
EXTT4=
EXTT5=
EXTT6=
PLAYORDER=
